<svg width="225" height="116" viewBox="0 0 225 116" fill="none" xmlns="http://www.w3.org/2000/svg">
<path d="M98.5757 114.497L93.5513 93.3727H89.9632V114.497H83.052V63.3232H93.8799C100.468 63.3232 104.708 68.1476 104.708 75.5343V81.1617C104.708 85.9125 102.948 89.566 99.9484 91.6134L105.752 114.497H98.5757ZM89.9685 86.0596H93.5566C96.2331 86.0596 97.7966 84.3064 97.7966 81.3088V75.3872C97.7966 72.3896 96.2331 70.6364 93.5566 70.6364H89.9685V86.0596Z" fill="white"/>
<path d="M124.731 103.242V63.3291H131.642V103.242C131.642 106.239 133.275 107.919 135.49 107.919C137.706 107.919 139.338 106.239 139.338 103.242V63.3291H146.122V103.242C146.122 110.408 141.818 115.232 135.49 115.232C129.162 115.226 124.731 110.402 124.731 103.242Z" fill="white"/>
<path d="M164.773 63.3232H186.815V70.6364H179.252V114.497H172.341V70.6364H164.778V63.3232H164.773Z" fill="white"/>
<path d="M216.593 103.599H209.276L207.801 114H201L207.748 36H217.584L225 114H218.069L216.593 103.599ZM216.014 93.5258L212.828 59.2848L210.497 93.5258H216.014Z" fill="white"/>
<path d="M0 63H6.9112V106.86H19.239V114.174H0V63Z" fill="white"/>
<path d="M49.8677 102.845H42.4318L40.932 114.174H34.0208L41.5838 63H50.8429L58.4061 114.174H51.3624L49.8677 102.845ZM48.9509 95.385L46.1472 73.9667L43.3435 95.385H48.9509Z" fill="white"/>
<path fill-rule="evenodd" clip-rule="evenodd" d="M174.107 7.88552C174.107 7.88552 176.412 10.1168 175.093 12.7238C173.775 15.3308 173.696 15.7653 173.696 15.7653C173.696 15.7653 174.526 15.6024 175.586 16.7293C176.647 17.8563 176.917 18.6031 177.864 18.6936C178.811 18.7842 180.674 19.3952 181.194 20.2687C181.715 21.1422 179.824 22.7399 179.484 22.0474C179.144 21.3549 179.891 21.0472 179.891 21.0472C179.891 21.0472 179.281 21.2463 178.517 21.3052C177.754 21.364 177.621 21.5224 177.289 20.762C176.96 20.0017 176.537 19.3409 175.872 19.5264C175.207 19.712 170.578 19.0602 170.585 16.7791C170.597 14.5071 170.687 7.47365 174.107 7.88552Z" fill="white"/>
<path fill-rule="evenodd" clip-rule="evenodd" d="M179.511 4.14257C179.511 4.14257 181.206 4.01585 181.37 3.37315C181.468 2.98392 175.164 -3.26652 173.078 2.29143C172.703 3.29168 173.481 5.16545 173.724 5.41891C174.033 5.74026 174.514 7.04375 173.927 7.5235C173.52 7.85843 170.664 8.05305 169.153 11.3299C168.645 12.4342 166.477 20.4815 166.895 22.6811C166.931 22.8712 166.668 26.2522 170.002 28.4563C173.34 30.6605 174.55 32.4528 174.984 32.8737C174.088 34.8018 176.029 44.5056 175.806 44.836C175.156 45.8 174.988 48.674 177.25 48.2531C178.514 48.0178 180.701 48.2395 181.163 48.3527C181.625 48.4658 182.165 47.4792 181.112 46.7188C180.059 45.9584 178.392 45.8679 177.95 44.0711C177.508 42.2743 178.024 36.3226 178.51 34.8018C178.999 33.2811 178.564 32.1405 177.449 30.4749C176.334 28.8094 173.544 22.6223 173.454 20.7893C173.364 18.9562 176.741 14.3171 176.001 11.0945C174.917 6.3739 177.946 9.65073 178.502 8.55996C178.701 8.1662 178.627 7.96706 178.838 7.86748C178.889 7.84485 178.756 7.56423 178.776 7.51897C178.799 7.46013 179.054 7.41036 179.061 7.36057C179.081 7.23837 179.026 7.11616 179.018 6.99848C178.987 6.63188 179.75 6.90797 179.754 6.69072C179.758 6.47347 179.347 5.4008 179.241 5.20619C179.128 5.00704 179.848 4.74 179.511 4.14257Z" fill="white"/>
<path fill-rule="evenodd" clip-rule="evenodd" d="M193.54 29.4931L193.72 29.8099C193.646 29.8642 193.579 29.9231 193.517 29.9864C192.828 30.6789 192.664 31.8738 193.18 32.7835C193.227 32.8695 193.278 32.9464 193.333 33.0189C193.931 33.8154 194.965 34.0055 195.755 33.4081C195.829 33.3538 195.896 33.2949 195.958 33.2316C196.651 32.5391 196.812 31.3442 196.295 30.43C196.248 30.3485 196.197 30.267 196.142 30.1946C195.544 29.3935 194.511 29.208 193.724 29.8054L193.54 29.4931L193.36 29.1717C194.428 28.3661 195.825 28.615 196.639 29.7013C196.714 29.8009 196.784 29.905 196.847 30.0181C197.543 31.2537 197.328 32.8695 196.389 33.8109C196.303 33.8969 196.213 33.9784 196.115 34.0508C195.047 34.8564 193.65 34.6075 192.836 33.5212C192.761 33.4217 192.691 33.313 192.628 33.2044C191.932 31.9688 192.147 30.353 193.086 29.4116C193.172 29.3256 193.262 29.2442 193.36 29.1717L193.54 29.4931Z" fill="white"/>
<path fill-rule="evenodd" clip-rule="evenodd" d="M194.213 30.6825C193.771 31.0174 193.646 31.7053 193.935 32.2168C194.225 32.7282 194.82 32.873 195.262 32.5381C195.704 32.2032 195.829 31.5152 195.54 31.0038C195.25 30.4924 194.655 30.3475 194.213 30.6825Z" fill="white"/>
<path fill-rule="evenodd" clip-rule="evenodd" d="M182.892 46.2255C185.565 50.9642 184.415 57.3142 180.314 60.41C176.217 63.5013 170.726 62.1707 168.05 57.4274C165.377 52.6887 166.531 46.3387 170.629 43.2429C174.726 40.1516 180.216 41.4822 182.892 46.2255ZM169.482 56.3457C171.638 60.1702 176.072 61.2473 179.378 58.7535C182.685 56.2552 183.616 51.1317 181.46 47.3072C179.3 43.4827 174.87 42.4056 171.564 44.8994C168.257 47.3977 167.322 52.5212 169.482 56.3457Z" fill="white"/>
<path fill-rule="evenodd" clip-rule="evenodd" d="M173.974 49.7021L174.154 50.0189C174.084 50.0732 174.013 50.132 173.951 50.1954C173.262 50.8879 173.098 52.0828 173.614 52.997C173.661 53.0785 173.712 53.1599 173.767 53.2324C174.366 54.0289 175.399 54.219 176.185 53.6216C176.26 53.5673 176.326 53.5084 176.389 53.4451C177.077 52.7526 177.242 51.5577 176.725 50.648C176.678 50.562 176.627 50.4851 176.573 50.4127C175.974 49.6161 174.941 49.426 174.154 50.0234L173.974 49.7021L173.794 49.3807C174.863 48.5751 176.26 48.824 177.074 49.9103C177.148 50.0098 177.218 50.1185 177.281 50.2316C177.978 51.4672 177.762 53.083 176.823 54.0244C176.737 54.1104 176.647 54.1919 176.549 54.2643C175.481 55.0699 174.084 54.821 173.27 53.7348C173.196 53.6352 173.125 53.5311 173.063 53.4179C172.366 52.1823 172.581 50.5666 173.52 49.6251C173.607 49.5391 173.7 49.4577 173.798 49.3852L173.974 49.7021Z" fill="white"/>
<path fill-rule="evenodd" clip-rule="evenodd" d="M174.647 50.8914C174.205 51.2264 174.08 51.9143 174.37 52.4257C174.659 52.9372 175.254 53.082 175.696 52.7471C176.138 52.4122 176.264 51.7242 175.974 51.2128C175.684 50.7013 175.09 50.5565 174.647 50.8914Z" fill="white"/>
<path fill-rule="evenodd" clip-rule="evenodd" d="M179.508 23.1609C179.508 23.1609 179.496 23.1745 179.472 23.1926C179.437 23.2288 179.386 23.2831 179.339 23.342C179.304 23.3872 179.273 23.437 179.249 23.4778C179.234 23.5094 179.222 23.5366 179.218 23.5502L179.214 23.5592L179.159 23.5456H179.214V23.5592L179.159 23.5456H179.214H179.093L179.206 23.4959L179.214 23.5456H179.093L179.206 23.4959L179.132 23.5276L179.198 23.4823L179.206 23.4959L179.132 23.5276L179.198 23.4823L179.202 23.4868C179.21 23.4959 179.234 23.5275 179.288 23.5683L178.956 24.1702L179.238 23.5321C179.245 23.5366 179.253 23.5411 179.288 23.5683L178.956 24.1702L179.238 23.5321L179.042 23.9711L179.226 23.523L179.238 23.5276L179.042 23.9666L179.226 23.5185C179.238 23.523 179.288 23.5502 179.355 23.5864C179.856 23.8353 181.488 24.6183 183.511 25.5869L183.276 26.2477L183.198 25.5371C183.28 25.5235 183.393 25.5326 183.511 25.5869L183.276 26.2477L183.198 25.5371L183.264 26.1753L182.982 25.6186C183.018 25.5959 183.072 25.5552 183.198 25.5371L183.264 26.1753L182.982 25.6186L183.151 25.9444L182.935 25.6548C182.939 25.6502 182.951 25.6367 182.982 25.614L183.151 25.9399L182.935 25.6503L182.943 25.6638L182.932 25.6503L182.939 25.6638L182.928 25.6503C182.935 25.6412 182.986 25.5778 183.041 25.5009C183.127 25.3787 183.233 25.2158 183.339 25.0528C183.393 24.9713 183.448 24.8944 183.503 24.8175C183.562 24.7405 183.62 24.6636 183.699 24.5866C183.753 24.5369 183.812 24.478 183.925 24.4146C183.984 24.383 184.059 24.3513 184.164 24.3422C184.266 24.3287 184.407 24.3468 184.532 24.4192C186.688 25.6321 189.181 27.2253 191.204 28.5333C192.214 29.1851 193.11 29.7689 193.779 30.1898C194.111 30.4026 194.393 30.5746 194.593 30.6922C194.695 30.7511 194.777 30.7963 194.831 30.8235C194.859 30.8371 194.878 30.8461 194.89 30.8506H194.894L194.859 30.9774L194.89 30.8506H194.894L194.859 30.9774L194.89 30.8506L194.788 31.2534L194.863 30.8416L194.89 30.8506L194.788 31.2534L194.863 30.8416C195.219 30.9276 195.446 31.3304 195.372 31.7423C195.297 32.1541 194.945 32.4166 194.589 32.3306C194.522 32.3125 194.475 32.2944 194.432 32.2763C194.346 32.2401 194.268 32.1949 194.17 32.1451C193.99 32.0455 193.763 31.9097 193.489 31.7377C192.531 31.1448 190.993 30.131 189.267 29.0267C187.541 27.9223 185.632 26.7274 183.957 25.786L184.227 25.1433L184.282 25.8539C184.195 25.863 184.07 25.8494 183.957 25.7815L184.227 25.1388L184.282 25.8494L184.235 25.2067L184.516 25.7634C184.481 25.786 184.419 25.8313 184.285 25.8449L184.239 25.2022L184.52 25.7589L184.36 25.4375L184.571 25.7181C184.567 25.7227 184.556 25.7317 184.52 25.7589L184.36 25.4375L184.571 25.7181C184.559 25.7272 184.512 25.7906 184.458 25.872C184.372 25.9942 184.266 26.1572 184.16 26.3201C184.105 26.4016 184.055 26.4785 183.996 26.5555C183.937 26.6324 183.882 26.7048 183.804 26.7863C183.753 26.8361 183.699 26.8904 183.589 26.9492C183.534 26.9764 183.464 27.008 183.366 27.0262C183.272 27.0397 183.139 27.0307 183.014 26.9718C181.801 26.3925 180.725 25.8766 179.954 25.5054C179.566 25.3199 179.253 25.166 179.034 25.0619C178.924 25.0076 178.838 24.9668 178.776 24.9351C178.744 24.9216 178.721 24.908 178.698 24.8944L178.666 24.8763L178.643 24.8944C178.631 24.8854 178.623 24.8808 178.584 24.8537C178.443 24.7496 178.318 24.6274 178.216 24.4916C178.122 24.3649 178.044 24.22 177.989 24.0707C177.895 23.7991 177.887 23.514 177.927 23.2786C177.989 22.9256 178.13 22.6721 178.259 22.473C178.392 22.2784 178.521 22.1335 178.611 22.043C178.67 21.9842 178.709 21.948 178.721 21.9389C179.011 21.6855 179.425 21.7579 179.641 22.0928C179.86 22.4322 179.797 22.912 179.508 23.1609Z" fill="white"/>
<path fill-rule="evenodd" clip-rule="evenodd" d="M181.421 25.5869L182.075 25.5009L183.879 43.9082C183.902 44.1617 183.816 44.4151 183.648 44.5781L175.594 52.4081C175.403 52.5936 175.14 52.6389 174.913 52.5257C174.686 52.4126 174.53 52.1591 174.514 51.874L173.786 39.2917C173.779 39.1649 173.798 39.0382 173.845 38.9205L179.562 24.6183C179.715 24.2427 180.098 24.0752 180.427 24.2427L181.691 24.8944C181.902 25.003 182.051 25.2384 182.078 25.5054L181.421 25.5869L181.151 26.2839L180.482 25.9399L175.109 39.3822L175.739 50.2718L182.528 43.6729L180.764 25.6729L181.421 25.5869Z" fill="white"/>
<path fill-rule="evenodd" clip-rule="evenodd" d="M182.935 44.6772L168.711 36.63C168.382 36.4444 168.249 35.9873 168.41 35.6116C168.57 35.2315 168.965 35.0776 169.29 35.2631L183.515 43.3104C183.839 43.496 183.976 43.9531 183.816 44.3287C183.659 44.7044 183.264 44.8628 182.935 44.6772Z" fill="white"/>
<path fill-rule="evenodd" clip-rule="evenodd" d="M171.145 30.8542C171.145 30.8542 170.816 30.2251 169.642 31.1213C169.11 31.5286 168.668 33.1308 167.533 34.6335C166.371 36.1723 164.868 37.4124 165.009 37.9872C165.205 38.7883 166.805 39.0011 168.183 37.5482C169.56 36.0954 169.4 33.7011 169.991 32.8412C170.582 31.9812 171.431 31.3023 171.145 30.8542Z" fill="white"/>
<path d="M187.269 40.2838L185.702 42.0889L186.321 42.8071L187.887 41.002L187.269 40.2838Z" fill="white"/>
<path fill-rule="evenodd" clip-rule="evenodd" d="M187.87 41.0067L188.336 41.5453L186.77 43.3512C186.649 43.4915 186.477 43.5729 186.305 43.5729C186.133 43.5729 185.96 43.4915 185.839 43.3512L185.221 42.6315C184.963 42.3328 184.966 41.853 185.221 41.5543L186.786 39.7485C187.044 39.4497 187.463 39.4497 187.717 39.7485L188.336 40.4681C188.457 40.6084 188.527 40.8075 188.527 41.0067C188.527 41.2058 188.457 41.405 188.332 41.5453L187.87 41.0067L187.404 41.5453L187.252 41.3688L186.622 42.0975L186.774 42.274L186.309 42.8126L185.843 42.274L187.408 40.4681L187.87 41.0067Z" fill="white"/>
<path d="M179.773 47.7301L177.599 48.1963L177.759 49.1931L179.932 48.7269L179.773 47.7301Z" fill="white"/>
<path fill-rule="evenodd" clip-rule="evenodd" d="M179.938 48.7415L180.059 49.4883L177.888 49.9545C177.715 49.9907 177.535 49.9454 177.394 49.8323C177.25 49.7191 177.152 49.5381 177.121 49.3435L176.96 48.3478C176.894 47.9359 177.128 47.5376 177.488 47.4607L179.66 46.9945C180.016 46.9175 180.361 47.1891 180.427 47.6055L180.588 48.6012C180.619 48.8004 180.58 49.004 180.482 49.1715C180.384 49.339 180.228 49.4521 180.059 49.4883L179.938 48.7415L179.288 48.8818L179.249 48.6374L178.373 48.8275L178.412 49.0719L177.766 49.2122L177.645 48.4654L179.817 47.9992L179.938 48.7415Z" fill="white"/>
<path fill-rule="evenodd" clip-rule="evenodd" d="M170.993 22.2646C174.42 22.5317 180.294 26.1796 181.914 29.8005C182.685 31.5203 183.209 38.0966 183.965 38.8208C184.72 39.545 186.99 38.0333 187.87 38.0921C188.747 38.151 187.811 40.2103 187.236 40.6448C186.661 41.0793 185.256 42.514 184.849 43.3378C184.442 44.1615 182.994 44.768 182.587 42.858C182.18 40.948 181.859 38.8299 181.523 38.2777C181.186 37.7255 179.273 31.6833 179.179 31.0361C179.085 30.3843 171.979 29.3433 170.257 28.2616C168.527 27.1754 168.883 24.8354 170.993 22.2646Z" fill="white"/>
<path fill-rule="evenodd" clip-rule="evenodd" d="M170.993 22.2654L171.016 21.8852C172.566 22.0074 174.522 22.7678 176.401 23.8812C178.279 24.9991 180.075 26.4655 181.265 28.0542C181.648 28.5656 181.969 29.0861 182.208 29.6202C182.317 29.8646 182.411 30.1633 182.505 30.5118C182.822 31.7248 183.092 33.5442 183.366 35.1736C183.503 35.9883 183.64 36.7532 183.781 37.3551C183.851 37.6538 183.922 37.9163 183.988 38.1155C184.055 38.3146 184.125 38.4549 184.164 38.5047L184.18 38.5228C184.219 38.559 184.282 38.5953 184.376 38.6134C184.54 38.6496 184.802 38.6269 185.099 38.55C185.546 38.4414 186.07 38.2241 186.559 38.0386C186.806 37.9435 187.04 37.8575 187.263 37.7941C187.487 37.7308 187.69 37.69 187.893 37.7036C187.987 37.7081 188.081 37.7308 188.167 37.776C188.253 37.8213 188.332 37.8847 188.394 37.9661C188.48 38.0838 188.527 38.2196 188.551 38.3509C188.586 38.5817 188.559 38.8035 188.508 39.0298C188.43 39.3692 188.289 39.7132 188.12 40.03C187.952 40.3468 187.764 40.6274 187.565 40.8311C187.522 40.8764 187.475 40.9171 187.424 40.9533C187.248 41.0846 186.954 41.3471 186.641 41.6639C186.344 41.9626 186.023 42.3111 185.749 42.6415C185.475 42.9719 185.248 43.2978 185.139 43.5196C185.049 43.6961 184.931 43.8545 184.794 43.9948C184.524 44.2618 184.18 44.4564 183.796 44.4926C183.605 44.5107 183.409 44.4836 183.217 44.3976C183.025 44.3116 182.845 44.1668 182.693 43.9676C182.501 43.7097 182.356 43.3702 182.266 42.9402C182.063 41.9762 181.879 40.9669 181.707 40.1386C181.621 39.7222 181.538 39.3556 181.456 39.0614C181.417 38.9166 181.378 38.7899 181.343 38.6903C181.308 38.5907 181.272 38.5183 181.249 38.4866C181.21 38.4233 181.178 38.3554 181.143 38.2739C181.01 37.9661 180.815 37.423 180.584 36.7486C180.239 35.7393 179.825 34.4539 179.488 33.3632C179.32 32.8155 179.171 32.3177 179.058 31.9239C179.003 31.7293 178.956 31.5573 178.921 31.417C178.885 31.2767 178.862 31.1771 178.846 31.0821L179.065 31.0413L178.897 31.2088C178.885 31.1952 178.858 31.1545 178.85 31.0821L179.069 31.0413L178.901 31.2088L178.964 31.1454L178.909 31.2224L178.901 31.2133L178.964 31.15L178.909 31.2269C178.909 31.2269 178.866 31.1907 178.795 31.159C178.662 31.0911 178.443 31.0096 178.165 30.9191C177.191 30.6114 175.524 30.2447 173.939 29.8555C173.145 29.6609 172.37 29.4572 171.705 29.249C171.036 29.0363 170.48 28.8281 170.096 28.5882C169.799 28.4027 169.549 28.1764 169.349 27.9093C169.079 27.5518 168.911 27.1218 168.852 26.6601C168.762 25.9677 168.903 25.2164 169.228 24.4334C169.552 23.6504 170.065 22.8311 170.75 21.9938C170.816 21.9124 170.914 21.8671 171.012 21.8761L170.993 22.2654L171.231 22.5279C170.362 23.5825 169.815 24.5918 169.599 25.4291C169.49 25.85 169.462 26.2257 169.506 26.5515C169.549 26.8774 169.658 27.158 169.85 27.4115C169.991 27.597 170.175 27.769 170.413 27.9184C170.593 28.0315 170.867 28.1583 171.2 28.2805C171.787 28.5022 172.558 28.724 173.387 28.9367C174.632 29.2581 176.013 29.5659 177.124 29.8465C177.68 29.9868 178.169 30.1225 178.549 30.2493C178.741 30.3126 178.901 30.376 179.042 30.4439C179.112 30.4801 179.171 30.5118 179.23 30.5525C179.288 30.5933 179.343 30.6385 179.398 30.7109C179.441 30.7652 179.484 30.8467 179.5 30.9599C179.5 30.9734 179.511 31.0277 179.531 31.1002C179.598 31.3808 179.758 31.942 179.961 32.6119C180.267 33.6257 180.674 34.9065 181.034 35.9792C181.214 36.5178 181.382 37.0021 181.519 37.3732C181.585 37.5588 181.648 37.7172 181.695 37.8349C181.742 37.9526 181.785 38.0385 181.789 38.0431C181.852 38.1472 181.902 38.2603 181.949 38.3916C182.114 38.8442 182.259 39.505 182.415 40.2789C182.572 41.0529 182.732 41.9219 182.908 42.7547C182.982 43.0941 183.084 43.3204 183.194 43.4652C183.28 43.5784 183.366 43.6463 183.456 43.687C183.589 43.7459 183.746 43.7504 183.91 43.7006C184.074 43.6508 184.239 43.5467 184.364 43.42C184.45 43.334 184.52 43.2344 184.567 43.1439C184.728 42.8226 184.978 42.4786 185.272 42.121C185.565 41.7635 185.898 41.4059 186.211 41.0936C186.54 40.7632 186.841 40.4916 187.064 40.3197C187.083 40.3061 187.107 40.2835 187.13 40.2608C187.22 40.1703 187.342 40.0119 187.455 39.8218C187.623 39.5412 187.78 39.1927 187.854 38.9075C187.893 38.7672 187.909 38.6405 187.909 38.559C187.909 38.5183 187.905 38.4912 187.901 38.4776L187.897 38.4685L187.909 38.4595L187.897 38.473L187.893 38.4685L187.905 38.4595L187.893 38.473L187.921 38.4459L187.901 38.4776L187.893 38.473L187.921 38.4459L187.901 38.4776L187.909 38.464L187.901 38.4821L187.909 38.4685L187.901 38.4866C187.901 38.4866 187.89 38.4776 187.854 38.4776C187.788 38.4731 187.678 38.4866 187.549 38.5138C187.318 38.5681 187.017 38.6767 186.696 38.7989C186.211 38.9845 185.671 39.2063 185.166 39.3239C184.912 39.3828 184.665 39.4145 184.43 39.3964C184.196 39.3783 183.957 39.3058 183.761 39.1157C183.726 39.0841 183.699 39.0479 183.667 39.0116C183.526 38.8216 183.436 38.5862 183.342 38.2965C183.182 37.7896 183.041 37.1152 182.9 36.3503C182.689 35.2053 182.485 33.861 182.278 32.6752C182.172 32.0823 182.067 31.5256 181.957 31.0594C181.848 30.5933 181.734 30.2085 181.628 29.9777C181.421 29.5115 181.128 29.0318 180.775 28.5611C179.668 27.0811 177.927 25.6418 176.107 24.5646C174.287 23.4829 172.382 22.7587 170.977 22.6501L170.993 22.2654Z" fill="white"/>
<path fill-rule="evenodd" clip-rule="evenodd" d="M173.923 9.1072C174.996 9.36971 176.228 11.3431 174.913 13.9455C173.595 16.5525 173.516 16.987 173.516 16.987C173.516 16.987 174.346 16.8241 175.407 17.951C176.467 19.0825 176.737 19.8248 177.684 19.9153C178.631 20.0058 180.494 20.6169 181.014 21.4904C181.535 22.3639 179.645 23.9616 179.304 23.2691C178.964 22.5766 179.711 22.2689 179.711 22.2689C178.909 22.5314 177.817 22.373 177.367 21.332C177.038 20.5716 176.361 20.5625 175.696 20.7526C175.031 20.9382 170.402 20.2865 170.409 18.0053C170.417 15.7288 170.507 8.69533 173.923 9.1072Z" fill="white"/>
<path fill-rule="evenodd" clip-rule="evenodd" d="M202.157 26.0076C204.834 30.7463 203.679 37.0963 199.578 40.1921C195.481 43.2834 189.991 41.9482 187.314 37.2094C184.638 32.4707 185.792 26.1207 189.893 23.0249C193.994 19.9336 199.484 21.2688 202.157 26.0076ZM188.75 36.1323C190.907 39.9567 195.34 41.0339 198.647 38.5401C201.953 36.0417 202.885 30.9183 200.729 27.0938C198.569 23.2693 194.139 22.1921 190.832 24.686C187.522 27.1798 186.59 32.3032 188.75 36.1323Z" fill="white"/>
<path fill-rule="evenodd" clip-rule="evenodd" d="M194.702 29.1035L195.505 30.7148C195.595 30.8958 195.54 31.1312 195.383 31.2353C195.227 31.3394 195.023 31.276 194.933 31.095L194.131 29.4837C194.041 29.3027 194.096 29.0673 194.252 28.9632C194.409 28.8591 194.612 28.918 194.702 29.1035Z" fill="white"/>
<path fill-rule="evenodd" clip-rule="evenodd" d="M196.401 29.9999L195.821 31.7379C195.755 31.9325 195.563 32.0321 195.395 31.9551C195.227 31.8782 195.141 31.6609 195.207 31.4618L195.786 29.7238C195.853 29.5292 196.045 29.4296 196.213 29.5065C196.385 29.5835 196.467 29.8053 196.401 29.9999Z" fill="white"/>
<path fill-rule="evenodd" clip-rule="evenodd" d="M196.866 32.0957L195.332 32.666C195.16 32.7294 194.972 32.6208 194.918 32.4216C194.863 32.2225 194.957 32.0052 195.129 31.9419L196.659 31.3716C196.831 31.3082 197.019 31.4168 197.074 31.616C197.136 31.8196 197.039 32.0324 196.866 32.0957Z" fill="white"/>
<path fill-rule="evenodd" clip-rule="evenodd" d="M195.747 33.8288L194.401 32.8105C194.248 32.6928 194.205 32.4575 194.307 32.2809C194.409 32.1044 194.612 32.0546 194.765 32.1723L196.111 33.1907C196.264 33.3038 196.307 33.5437 196.205 33.7202C196.107 33.8967 195.9 33.9465 195.747 33.8288Z" fill="white"/>
<path fill-rule="evenodd" clip-rule="evenodd" d="M193.881 33.9152L193.72 32.0641C193.701 31.8559 193.834 31.6658 194.014 31.6477C194.194 31.6251 194.358 31.779 194.374 31.9872L194.534 33.8383C194.554 34.0465 194.421 34.2321 194.241 34.2547C194.061 34.2773 193.9 34.128 193.881 33.9152Z" fill="white"/>
<path fill-rule="evenodd" clip-rule="evenodd" d="M192.648 32.2899L193.791 30.9819C193.92 30.8325 194.127 30.837 194.256 30.9864C194.385 31.1357 194.385 31.3756 194.252 31.525L193.106 32.833C192.977 32.9824 192.769 32.9778 192.64 32.8285C192.519 32.6791 192.519 32.4392 192.648 32.2899Z" fill="white"/>
<path fill-rule="evenodd" clip-rule="evenodd" d="M192.969 30.1585L194.569 30.3622C194.749 30.3848 194.882 30.5749 194.859 30.7831C194.839 30.9913 194.675 31.1452 194.495 31.118L192.894 30.9144C192.714 30.8917 192.581 30.7016 192.605 30.4934C192.624 30.2852 192.789 30.1359 192.969 30.1585Z" fill="white"/>
<path fill-rule="evenodd" clip-rule="evenodd" d="M176.279 54.1013L174.933 53.0829C174.78 52.9698 174.737 52.7299 174.839 52.5534C174.937 52.3769 175.144 52.3271 175.297 52.4448L176.643 53.4631C176.796 53.5808 176.839 53.8162 176.737 53.9927C176.639 54.1647 176.432 54.2144 176.279 54.1013Z" fill="white"/>
<path fill-rule="evenodd" clip-rule="evenodd" d="M174.287 54.2267L174.166 52.3711C174.15 52.1629 174.287 51.9773 174.471 51.9637C174.651 51.9501 174.812 52.104 174.823 52.3168L174.945 54.1724C174.956 54.3806 174.823 54.5662 174.64 54.5798C174.46 54.5933 174.299 54.4349 174.287 54.2267Z" fill="white"/>
<path fill-rule="evenodd" clip-rule="evenodd" d="M172.984 52.4757L174.182 51.2311C174.319 51.0908 174.526 51.1043 174.647 51.2582C174.769 51.4166 174.757 51.6565 174.624 51.7968L173.426 53.0415C173.29 53.1818 173.082 53.1682 172.961 53.0143C172.836 52.8604 172.847 52.616 172.984 52.4757Z" fill="white"/>
<path fill-rule="evenodd" clip-rule="evenodd" d="M173.387 50.2172L174.972 50.5566C175.152 50.5928 175.27 50.792 175.234 51.0002C175.203 51.2084 175.031 51.3442 174.851 51.3034L173.27 50.964C173.09 50.9278 172.972 50.7286 173.008 50.5204C173.035 50.3122 173.207 50.1764 173.387 50.2172Z" fill="white"/>
<path fill-rule="evenodd" clip-rule="evenodd" d="M175.187 49.2083L175.919 50.8648C176.001 51.0504 175.939 51.2812 175.774 51.3763C175.614 51.4713 175.414 51.3989 175.332 51.2088L174.6 49.5523C174.518 49.3667 174.581 49.1359 174.745 49.0408C174.906 48.9458 175.105 49.0227 175.187 49.2083Z" fill="white"/>
<path fill-rule="evenodd" clip-rule="evenodd" d="M176.972 50.2441L176.279 51.9232C176.201 52.1133 176.005 52.1948 175.841 52.1043C175.676 52.0138 175.606 51.7875 175.684 51.5974L176.377 49.9182C176.455 49.7281 176.651 49.6467 176.815 49.7372C176.98 49.8277 177.05 50.054 176.972 50.2441Z" fill="white"/>
<path fill-rule="evenodd" clip-rule="evenodd" d="M177.351 52.5126L175.778 52.9018C175.598 52.9471 175.426 52.8158 175.387 52.6076C175.348 52.3994 175.461 52.2003 175.641 52.155L177.214 51.7658C177.391 51.7205 177.567 51.8518 177.606 52.06C177.641 52.2636 177.531 52.4673 177.351 52.5126Z" fill="white"/>
<path fill-rule="evenodd" clip-rule="evenodd" d="M191.991 28.9044L185.898 24.7993C185.612 24.6047 185.24 24.7178 185.072 25.0528L184.794 25.6004C184.626 25.9308 184.724 26.3608 185.013 26.5554L191.106 30.6605C191.392 30.8551 191.764 30.742 191.932 30.407L192.21 29.8594C192.374 29.529 192.276 29.099 191.991 28.9044Z" fill="white"/>
<path fill-rule="evenodd" clip-rule="evenodd" d="M191.991 28.9044L191.959 28.9723L185.866 24.8672C185.663 24.7314 185.413 24.7676 185.24 24.9351C185.197 24.9803 185.158 25.0301 185.131 25.089L184.853 25.6366C184.736 25.872 184.767 26.1616 184.912 26.3608C184.951 26.4106 184.994 26.4558 185.045 26.492L191.137 30.5971C191.341 30.7329 191.595 30.6967 191.764 30.5292C191.807 30.484 191.846 30.4342 191.877 30.3708L192.151 29.8232C192.268 29.5878 192.237 29.2982 192.092 29.099C192.053 29.0492 192.01 29.004 191.959 28.9723L191.991 28.9044L192.026 28.8365C192.092 28.8818 192.147 28.9361 192.194 28.9994C192.378 29.2439 192.417 29.6059 192.268 29.9001L191.994 30.4478C191.955 30.5247 191.908 30.5881 191.854 30.6424C191.642 30.8551 191.329 30.9004 191.075 30.7284L184.982 26.6233C184.916 26.578 184.861 26.5237 184.814 26.4603C184.63 26.2159 184.591 25.8539 184.739 25.5597L185.017 25.012C185.056 24.9351 185.103 24.8717 185.158 24.8174C185.369 24.6047 185.683 24.5594 185.937 24.7314L192.026 28.8365L191.991 28.9044Z" fill="white"/>
<path fill-rule="evenodd" clip-rule="evenodd" d="M194.714 30.8644C194.961 30.8598 195.133 31.0092 195.195 31.2989C195.25 31.5614 195.145 31.9461 194.902 32.0275C194.863 32.0411 194.828 31.9868 194.843 31.9461C194.914 31.7288 195.055 31.5885 195.019 31.3351C194.996 31.154 194.855 30.982 194.698 30.9368C194.663 30.9277 194.679 30.8644 194.714 30.8644Z" fill="white"/>
<path fill-rule="evenodd" clip-rule="evenodd" d="M175.383 51.0771C175.485 51.1631 175.563 51.222 175.63 51.3487C175.673 51.4392 175.677 51.5524 175.653 51.6519C175.598 51.8782 175.266 52.0502 175.097 51.9235C175.07 51.9054 175.066 51.8511 175.094 51.8285C175.219 51.7244 175.399 51.7832 175.5 51.6203C175.587 51.48 175.457 51.1948 175.379 51.0907L175.383 51.0771Z" fill="white"/>
<path fill-rule="evenodd" clip-rule="evenodd" d="M175.712 46.0628C175.704 46.3524 175.766 46.624 175.853 46.8955C175.915 47.1037 176.044 47.2984 176.048 47.5201C176.048 47.5518 176.013 47.5699 175.993 47.5518C175.825 47.3934 175.766 47.0902 175.704 46.8593C175.633 46.5968 175.606 46.3207 175.669 46.0537L175.712 46.0628Z" fill="white"/>
<path fill-rule="evenodd" clip-rule="evenodd" d="M176.072 0.969727C176.553 0.974253 176.944 1.12813 177.379 1.36349C177.782 1.58074 178.4 1.83419 178.678 2.25058C178.701 2.28679 178.686 2.34563 178.639 2.34111C178.259 2.30037 177.891 1.94734 177.563 1.73914C177.109 1.44948 176.581 1.10551 176.064 0.996882L176.072 0.969727Z" fill="#3B3B3C"/>
<path fill-rule="evenodd" clip-rule="evenodd" d="M194.98 21.6982C195.712 21.5851 196.389 21.7435 197.089 22.0015C197.743 22.2459 198.494 22.6034 198.983 23.1737C199.023 23.219 198.968 23.2778 198.925 23.2506C197.676 22.5355 196.436 21.6801 194.984 21.7525C194.953 21.7571 194.949 21.7028 194.98 21.6982Z" fill="#3B3B3C"/>
<path fill-rule="evenodd" clip-rule="evenodd" d="M192.988 40.7483C193.411 40.7845 193.818 40.9067 194.233 40.9927C194.648 41.0832 195.066 41.0651 195.481 41.1239C195.536 41.133 195.54 41.219 195.489 41.2326C194.722 41.4724 193.704 41.1058 192.977 40.8207C192.938 40.8116 192.949 40.7437 192.988 40.7483Z" fill="#3B3B3C"/>
<path fill-rule="evenodd" clip-rule="evenodd" d="M186.626 25.5776C187.087 25.7541 187.51 26.0437 187.933 26.3153C188.465 26.6548 189.02 26.9806 189.525 27.3653C189.588 27.4151 189.541 27.5373 189.466 27.5056C189.016 27.3201 188.606 27.0033 188.195 26.7181C187.663 26.3515 187.119 26.0256 186.582 25.6817C186.536 25.65 186.575 25.5595 186.626 25.5776Z" fill="#3B3B3C"/>
<path fill-rule="evenodd" clip-rule="evenodd" d="M178.866 19.6572C179.3 19.6618 179.938 19.8564 180.188 20.3044C180.208 20.3407 180.169 20.3904 180.138 20.3723C179.914 20.2592 179.734 20.06 179.511 19.9424C179.304 19.8292 179.077 19.7704 178.862 19.6889L178.866 19.6572Z" fill="#3B3B3C"/>
<path fill-rule="evenodd" clip-rule="evenodd" d="M174.702 16.8384C174.898 17.0059 175.078 17.1915 175.25 17.3906C175.426 17.5943 175.641 17.8025 175.747 18.065C175.774 18.1374 175.708 18.2053 175.649 18.1646C175.457 18.0333 175.328 17.8115 175.18 17.6214C174.999 17.3906 174.816 17.1643 174.628 16.938C174.585 16.8837 174.651 16.7932 174.702 16.8384Z" fill="#3B3B3C"/>
<path fill-rule="evenodd" clip-rule="evenodd" d="M172.663 8.98049C172.143 9.35163 171.658 9.7997 171.223 10.2976C170.683 10.9131 170.476 11.6689 170.171 12.4429C170.139 12.5198 170.03 12.5108 170.038 12.4157C170.179 10.7004 171.485 9.72276 172.644 8.93976C172.667 8.92166 172.687 8.96692 172.663 8.98049Z" fill="#3B3B3C"/>
<path fill-rule="evenodd" clip-rule="evenodd" d="M168.249 25.1934C168.692 26.3294 169.642 26.9223 170.331 27.8139C170.37 27.8637 170.312 27.9452 170.265 27.9044C169.408 27.2346 168.625 26.3203 168.222 25.2115L168.249 25.1934Z" fill="#3B3B3C"/>
<path fill-rule="evenodd" clip-rule="evenodd" d="M165.937 38.3099C166.86 38.3008 167.334 37.6989 167.733 36.8027C168.015 36.1736 168.167 35.3589 168.609 34.843C168.649 34.7977 168.715 34.852 168.695 34.9108C168.414 35.7934 168.034 36.7439 167.576 37.5269C167.197 38.1786 166.602 38.586 165.921 38.3732C165.898 38.3597 165.909 38.3099 165.937 38.3099Z" fill="#3B3B3C"/>
<path fill-rule="evenodd" clip-rule="evenodd" d="M178.752 26.5645C179.664 27.1393 180.556 27.9947 181.108 29.0221C181.143 29.0854 181.061 29.1398 181.018 29.0945C180.255 28.2481 179.617 27.2931 178.74 26.5826L178.752 26.5645Z" fill="#3B3B3C"/>
<path fill-rule="evenodd" clip-rule="evenodd" d="M185.612 38.8347C185.804 38.6718 186.066 38.6311 186.293 38.5677C186.622 38.4772 186.962 38.2554 187.303 38.2373C187.338 38.2373 187.357 38.2871 187.338 38.3188C187.158 38.5949 186.778 38.6446 186.504 38.7125C186.215 38.7849 185.921 38.8709 185.628 38.88L185.612 38.8347Z" fill="#3B3B3C"/>
<path fill-rule="evenodd" clip-rule="evenodd" d="M176.487 33.7155C176.322 34.1726 176.15 34.6297 175.986 35.0868C175.798 35.6073 175.712 36.1233 175.602 36.6709C175.594 36.7162 175.532 36.7117 175.524 36.6664C175.387 35.6798 176.087 34.5301 176.479 33.7109L176.487 33.7155Z" fill="#3B3B3C"/>
<path fill-rule="evenodd" clip-rule="evenodd" d="M173.536 28.4469C174.213 28.8226 175.105 29.0896 175.669 29.678C175.696 29.7097 175.661 29.764 175.63 29.7504C175.281 29.6147 174.96 29.3657 174.632 29.1756C174.252 28.9538 173.872 28.7411 173.497 28.5148C173.454 28.4922 173.493 28.4243 173.536 28.4469Z" fill="#3B3B3C"/>
<path fill-rule="evenodd" clip-rule="evenodd" d="M173.293 2.97901C173.403 3.29583 173.419 3.65338 173.473 3.98378C173.552 4.45449 173.794 4.75321 173.974 5.16055C173.994 5.20128 173.951 5.23749 173.919 5.21939C173.317 4.83468 173.207 3.7077 173.223 2.99712C173.227 2.95638 173.278 2.9428 173.293 2.97901Z" fill="#3B3B3C"/>
<path fill-rule="evenodd" clip-rule="evenodd" d="M167.549 50.8649C167.557 51.4985 167.49 52.1276 167.518 52.7613C167.553 53.5036 167.764 54.1146 167.932 54.8251C167.944 54.8749 167.878 54.9202 167.846 54.8749C167.173 53.7842 167.314 52.096 167.518 50.8604L167.549 50.8649Z" fill="#3B3B3C"/>
<path fill-rule="evenodd" clip-rule="evenodd" d="M183.808 49.1585C184.121 50.213 184.485 51.4169 184.254 52.5394C184.242 52.5937 184.16 52.5892 184.156 52.5349C184.078 51.3853 183.969 50.299 183.765 49.1675C183.761 49.1358 183.8 49.1313 183.808 49.1585Z" fill="#3B3B3C"/>
</svg>
